<mxfile host="app.diagrams.net" modified="2021-03-27T12:44:10.101Z" agent="5.0 (X11; Linux x86_64) AppleWebKit/537.36 (KHTML, like Gecko) Chrome/89.0.4389.90 Safari/537.36" etag="qLCiANm2qBZqW8Bf0PmQ" version="14.4.9" type="github">
  <diagram name="Page-1" id="c4acf3e9-155e-7222-9cf6-157b1a14988f">
    <mxGraphModel dx="6775" dy="6208" grid="1" gridSize="10" guides="1" tooltips="1" connect="1" arrows="1" fold="1" page="1" pageScale="1" pageWidth="827" pageHeight="1169" background="#ffffff" math="0" shadow="0">
      <root>
        <mxCell id="0" />
        <mxCell id="1" parent="0" />
        <mxCell id="17acba5748e5396b-1" value="frame" style="shape=umlFrame;whiteSpace=wrap;html=1;rounded=0;shadow=0;comic=0;labelBackgroundColor=none;strokeWidth=1;fontFamily=Verdana;fontSize=10;align=center;" parent="1" vertex="1">
          <mxGeometry x="20" y="20" width="1610" height="1060" as="geometry" />
        </mxCell>
        <mxCell id="QnhWw6pTb6ciaW2jzA_6-1" value="User" style="swimlane;fontStyle=1;align=center;verticalAlign=top;childLayout=stackLayout;horizontal=1;startSize=26;horizontalStack=0;resizeParent=1;resizeParentMax=0;resizeLast=0;collapsible=1;marginBottom=0;" parent="1" vertex="1">
          <mxGeometry x="80" y="120" width="200" height="194" as="geometry" />
        </mxCell>
        <mxCell id="QnhWw6pTb6ciaW2jzA_6-2" value="- id: integer&lt;br&gt;- username: string (180)&lt;br&gt;- email: string (180) Unique&lt;br&gt;- roles: [ ] json&lt;br&gt;- password: string (hashed)&lt;br&gt;- userAdvances: &lt;b&gt;UserAdvance&lt;/b&gt;&lt;br&gt;- userMailingOk: bolean&lt;br&gt;- userNickName: string (255)" style="text;strokeColor=none;fillColor=none;align=left;verticalAlign=top;spacingLeft=4;spacingRight=4;overflow=hidden;rotatable=0;points=[[0,0.5],[1,0.5]];portConstraint=eastwest;html=1;" parent="QnhWw6pTb6ciaW2jzA_6-1" vertex="1">
          <mxGeometry y="26" width="200" height="134" as="geometry" />
        </mxCell>
        <mxCell id="QnhWw6pTb6ciaW2jzA_6-3" value="" style="line;strokeWidth=1;fillColor=none;align=left;verticalAlign=middle;spacingTop=-1;spacingLeft=3;spacingRight=3;rotatable=0;labelPosition=right;points=[];portConstraint=eastwest;" parent="QnhWw6pTb6ciaW2jzA_6-1" vertex="1">
          <mxGeometry y="160" width="200" height="8" as="geometry" />
        </mxCell>
        <mxCell id="QnhWw6pTb6ciaW2jzA_6-4" value="+ method(type): type" style="text;strokeColor=none;fillColor=none;align=left;verticalAlign=top;spacingLeft=4;spacingRight=4;overflow=hidden;rotatable=0;points=[[0,0.5],[1,0.5]];portConstraint=eastwest;" parent="QnhWw6pTb6ciaW2jzA_6-1" vertex="1">
          <mxGeometry y="168" width="200" height="26" as="geometry" />
        </mxCell>
        <mxCell id="QnhWw6pTb6ciaW2jzA_6-5" value="UserAdvance" style="swimlane;fontStyle=1;align=center;verticalAlign=top;childLayout=stackLayout;horizontal=1;startSize=26;horizontalStack=0;resizeParent=1;resizeParentMax=0;resizeLast=0;collapsible=1;marginBottom=0;" parent="1" vertex="1">
          <mxGeometry x="520" y="145" width="330" height="144" as="geometry" />
        </mxCell>
        <mxCell id="QnhWw6pTb6ciaW2jzA_6-6" value="- id: integer&lt;br&gt;- adventureId: integer&lt;br&gt;- advanceValue: float&lt;br&gt;- user: &lt;b&gt;User&lt;/b&gt;&lt;br&gt;- goodAnswerValue: text (json =&amp;gt; &#39;enygmaLoopId&#39;, &#39;bolean&#39;)&amp;nbsp;" style="text;strokeColor=none;fillColor=none;align=left;verticalAlign=top;spacingLeft=4;spacingRight=4;overflow=hidden;rotatable=0;points=[[0,0.5],[1,0.5]];portConstraint=eastwest;html=1;" parent="QnhWw6pTb6ciaW2jzA_6-5" vertex="1">
          <mxGeometry y="26" width="330" height="84" as="geometry" />
        </mxCell>
        <mxCell id="QnhWw6pTb6ciaW2jzA_6-7" value="" style="line;strokeWidth=1;fillColor=none;align=left;verticalAlign=middle;spacingTop=-1;spacingLeft=3;spacingRight=3;rotatable=0;labelPosition=right;points=[];portConstraint=eastwest;" parent="QnhWw6pTb6ciaW2jzA_6-5" vertex="1">
          <mxGeometry y="110" width="330" height="8" as="geometry" />
        </mxCell>
        <mxCell id="QnhWw6pTb6ciaW2jzA_6-8" value="+ method(type): type" style="text;strokeColor=none;fillColor=none;align=left;verticalAlign=top;spacingLeft=4;spacingRight=4;overflow=hidden;rotatable=0;points=[[0,0.5],[1,0.5]];portConstraint=eastwest;" parent="QnhWw6pTb6ciaW2jzA_6-5" vertex="1">
          <mxGeometry y="118" width="330" height="26" as="geometry" />
        </mxCell>
        <mxCell id="QnhWw6pTb6ciaW2jzA_6-9" value="" style="endArrow=open;html=1;endSize=12;startArrow=open;startSize=14;startFill=0;edgeStyle=orthogonalEdgeStyle;exitX=1;exitY=0.5;exitDx=0;exitDy=0;entryX=0;entryY=0.5;entryDx=0;entryDy=0;" parent="1" source="QnhWw6pTb6ciaW2jzA_6-2" target="QnhWw6pTb6ciaW2jzA_6-6" edge="1">
          <mxGeometry relative="1" as="geometry">
            <mxPoint x="320" y="195.5" as="sourcePoint" />
            <mxPoint x="480" y="195.5" as="targetPoint" />
          </mxGeometry>
        </mxCell>
        <mxCell id="QnhWw6pTb6ciaW2jzA_6-10" value="1" style="edgeLabel;resizable=0;html=1;align=left;verticalAlign=top;" parent="QnhWw6pTb6ciaW2jzA_6-9" connectable="0" vertex="1">
          <mxGeometry x="-1" relative="1" as="geometry">
            <mxPoint x="10" as="offset" />
          </mxGeometry>
        </mxCell>
        <mxCell id="QnhWw6pTb6ciaW2jzA_6-11" value="&lt;font style=&quot;font-size: 13px&quot;&gt;*&lt;/font&gt;" style="edgeLabel;resizable=0;html=1;align=right;verticalAlign=top;" parent="QnhWw6pTb6ciaW2jzA_6-9" connectable="0" vertex="1">
          <mxGeometry x="1" relative="1" as="geometry">
            <mxPoint x="-10.2" y="2" as="offset" />
          </mxGeometry>
        </mxCell>
        <mxCell id="hQuamOxjZvcl3ys562Xx-1" value="CityAdventure" style="swimlane;fontStyle=1;align=center;verticalAlign=top;childLayout=stackLayout;horizontal=1;startSize=26;horizontalStack=0;resizeParent=1;resizeParentMax=0;resizeLast=0;collapsible=1;marginBottom=0;" parent="1" vertex="1">
          <mxGeometry x="80" y="376" width="270" height="394" as="geometry" />
        </mxCell>
        <mxCell id="hQuamOxjZvcl3ys562Xx-2" value="- id: integer&lt;br&gt;- adventureName: string(255)&lt;br&gt;- adventureTown: string(255)&lt;br&gt;- adventurePictureFilename: string(255)&lt;br&gt;- adventureDuration: string(255)&lt;br&gt;- adventureDescription: text&lt;br&gt;- videoAventureIntroFilename: string(255)&lt;br&gt;- videoLastEnigmaFilename: string(255)&lt;br&gt;- lastEnigmaPictureFilename: string(255)&lt;br&gt;- lastEnigmaQuestionText: string(255)&lt;br&gt;- lastEnigmaExpectedAnswer: string(255)&lt;br&gt;- videoFinalSequenceFilename: string(255)&lt;br&gt;- enygmaLoops : &lt;b&gt;EnigmaLoop&lt;/b&gt;&lt;br&gt;- lastEnigmaLatitude: float&lt;br&gt;- lastEnigmaLongitude: float&lt;br&gt;- pictoMarker: string(255)&lt;br&gt;- adventureWebLink: string(255)&lt;br&gt;- pointOfInterest: boolean&lt;br&gt;- catchPositionDistance: integer&lt;br&gt;- adventureLastVidOff: boolean&lt;br&gt;- adventureMapOff: bolean&lt;br&gt;- adventureFinalQuestionOff: bolean&lt;br&gt;- adventureUseCompass: bolean" style="text;strokeColor=none;fillColor=none;align=left;verticalAlign=top;spacingLeft=4;spacingRight=4;overflow=hidden;rotatable=0;points=[[0,0.5],[1,0.5]];portConstraint=eastwest;html=1;" parent="hQuamOxjZvcl3ys562Xx-1" vertex="1">
          <mxGeometry y="26" width="270" height="334" as="geometry" />
        </mxCell>
        <mxCell id="hQuamOxjZvcl3ys562Xx-3" value="" style="line;strokeWidth=1;fillColor=none;align=left;verticalAlign=middle;spacingTop=-1;spacingLeft=3;spacingRight=3;rotatable=0;labelPosition=right;points=[];portConstraint=eastwest;" parent="hQuamOxjZvcl3ys562Xx-1" vertex="1">
          <mxGeometry y="360" width="270" height="8" as="geometry" />
        </mxCell>
        <mxCell id="hQuamOxjZvcl3ys562Xx-4" value="+ method(type): type" style="text;strokeColor=none;fillColor=none;align=left;verticalAlign=top;spacingLeft=4;spacingRight=4;overflow=hidden;rotatable=0;points=[[0,0.5],[1,0.5]];portConstraint=eastwest;" parent="hQuamOxjZvcl3ys562Xx-1" vertex="1">
          <mxGeometry y="368" width="270" height="26" as="geometry" />
        </mxCell>
        <mxCell id="hQuamOxjZvcl3ys562Xx-5" value="EnygmaLoop" style="swimlane;fontStyle=1;align=center;verticalAlign=top;childLayout=stackLayout;horizontal=1;startSize=26;horizontalStack=0;resizeParent=1;resizeParentMax=0;resizeLast=0;collapsible=1;marginBottom=0;" parent="1" vertex="1">
          <mxGeometry x="520" y="376" width="280" height="384" as="geometry" />
        </mxCell>
        <mxCell id="hQuamOxjZvcl3ys562Xx-6" value="- id: integer&lt;br&gt;- storyOrder: string(10)&lt;br&gt;- enygmaName: string(255)&lt;br&gt;- gpsCoordLatitude: float&lt;br&gt;- gpsCoordLongitude: float&lt;br&gt;- compassActivate: float&lt;br&gt;- videoIntroClueFilename: string(255)&lt;br&gt;- videoHistoryInfoFilename: string(255)&lt;br&gt;- enygmaQuestionPictureFilename: string(255)&lt;br&gt;- enygmaQuestionText: text&lt;br&gt;- enigmaExpectedAnswer: string(255)&lt;br&gt;- cityAdventure: &lt;b&gt;CityAdventure&lt;/b&gt;&lt;br&gt;- loopPictoMarker: string(255)&lt;br&gt;- loopDescription: text&lt;br&gt;- loopWebLink: string(255)&lt;br&gt;- loopCatchPostitionDistance: integer&lt;br&gt;- loopFirstVidOff: boolean&lt;br&gt;- loopMapOff: boolean&lt;br&gt;- loopQuestionOff: boolean&lt;br&gt;- loopUseCompass: boolean" style="text;strokeColor=none;fillColor=none;align=left;verticalAlign=top;spacingLeft=4;spacingRight=4;overflow=hidden;rotatable=0;points=[[0,0.5],[1,0.5]];portConstraint=eastwest;html=1;" parent="hQuamOxjZvcl3ys562Xx-5" vertex="1">
          <mxGeometry y="26" width="280" height="324" as="geometry" />
        </mxCell>
        <mxCell id="hQuamOxjZvcl3ys562Xx-7" value="" style="line;strokeWidth=1;fillColor=none;align=left;verticalAlign=middle;spacingTop=-1;spacingLeft=3;spacingRight=3;rotatable=0;labelPosition=right;points=[];portConstraint=eastwest;" parent="hQuamOxjZvcl3ys562Xx-5" vertex="1">
          <mxGeometry y="350" width="280" height="8" as="geometry" />
        </mxCell>
        <mxCell id="hQuamOxjZvcl3ys562Xx-8" value="+ method(type): type" style="text;strokeColor=none;fillColor=none;align=left;verticalAlign=top;spacingLeft=4;spacingRight=4;overflow=hidden;rotatable=0;points=[[0,0.5],[1,0.5]];portConstraint=eastwest;" parent="hQuamOxjZvcl3ys562Xx-5" vertex="1">
          <mxGeometry y="358" width="280" height="26" as="geometry" />
        </mxCell>
        <mxCell id="hQuamOxjZvcl3ys562Xx-9" value="" style="endArrow=open;html=1;endSize=12;startArrow=open;startSize=14;startFill=0;edgeStyle=orthogonalEdgeStyle;entryX=0;entryY=0.5;entryDx=0;entryDy=0;" parent="1" edge="1">
          <mxGeometry relative="1" as="geometry">
            <mxPoint x="350" y="500" as="sourcePoint" />
            <mxPoint x="520" y="500.0000000000002" as="targetPoint" />
          </mxGeometry>
        </mxCell>
        <mxCell id="hQuamOxjZvcl3ys562Xx-10" value="1" style="edgeLabel;resizable=0;html=1;align=left;verticalAlign=top;" parent="hQuamOxjZvcl3ys562Xx-9" connectable="0" vertex="1">
          <mxGeometry x="-1" relative="1" as="geometry">
            <mxPoint x="10" as="offset" />
          </mxGeometry>
        </mxCell>
        <mxCell id="hQuamOxjZvcl3ys562Xx-11" value="&lt;font style=&quot;font-size: 13px&quot;&gt;*&lt;/font&gt;" style="edgeLabel;resizable=0;html=1;align=right;verticalAlign=top;" parent="hQuamOxjZvcl3ys562Xx-9" connectable="0" vertex="1">
          <mxGeometry x="1" relative="1" as="geometry">
            <mxPoint x="-10.2" y="2" as="offset" />
          </mxGeometry>
        </mxCell>
        <mxCell id="hQuamOxjZvcl3ys562Xx-18" value="&amp;nbsp;" style="shape=umlFrame;whiteSpace=wrap;html=1;rounded=0;shadow=0;comic=0;labelBackgroundColor=none;strokeWidth=1;fontFamily=Verdana;fontSize=10;align=center;" parent="1" vertex="1">
          <mxGeometry x="1880" y="-1500" width="3550" height="2504" as="geometry" />
        </mxCell>
        <mxCell id="hQuamOxjZvcl3ys562Xx-19" value="User" style="swimlane;fontStyle=1;align=center;verticalAlign=top;childLayout=stackLayout;horizontal=1;startSize=26;horizontalStack=0;resizeParent=1;resizeParentMax=0;resizeLast=0;collapsible=1;marginBottom=0;" parent="1" vertex="1">
          <mxGeometry x="3255" y="130" width="200" height="194" as="geometry" />
        </mxCell>
        <mxCell id="hQuamOxjZvcl3ys562Xx-20" value="- id: integer&lt;br&gt;- username: string (180)&lt;br&gt;- email: string (180) Unique&lt;br&gt;- roles: [ ] json&lt;br&gt;- password: string (hashed)&lt;br&gt;- userAdvances: &lt;b&gt;UserAdvance&lt;/b&gt;&lt;br&gt;- userMailingOk: bolean&lt;br&gt;- userNickName: string (255)" style="text;strokeColor=none;fillColor=none;align=left;verticalAlign=top;spacingLeft=4;spacingRight=4;overflow=hidden;rotatable=0;points=[[0,0.5],[1,0.5]];portConstraint=eastwest;html=1;" parent="hQuamOxjZvcl3ys562Xx-19" vertex="1">
          <mxGeometry y="26" width="200" height="134" as="geometry" />
        </mxCell>
        <mxCell id="hQuamOxjZvcl3ys562Xx-21" value="" style="line;strokeWidth=1;fillColor=none;align=left;verticalAlign=middle;spacingTop=-1;spacingLeft=3;spacingRight=3;rotatable=0;labelPosition=right;points=[];portConstraint=eastwest;" parent="hQuamOxjZvcl3ys562Xx-19" vertex="1">
          <mxGeometry y="160" width="200" height="8" as="geometry" />
        </mxCell>
        <mxCell id="hQuamOxjZvcl3ys562Xx-22" value="+ method(type): type" style="text;strokeColor=none;fillColor=none;align=left;verticalAlign=top;spacingLeft=4;spacingRight=4;overflow=hidden;rotatable=0;points=[[0,0.5],[1,0.5]];portConstraint=eastwest;" parent="hQuamOxjZvcl3ys562Xx-19" vertex="1">
          <mxGeometry y="168" width="200" height="26" as="geometry" />
        </mxCell>
        <mxCell id="hQuamOxjZvcl3ys562Xx-23" value="UserAdvance" style="swimlane;fontStyle=1;align=center;verticalAlign=top;childLayout=stackLayout;horizontal=1;startSize=26;horizontalStack=0;resizeParent=1;resizeParentMax=0;resizeLast=0;collapsible=1;marginBottom=0;" parent="1" vertex="1">
          <mxGeometry x="3695" y="155" width="330" height="194" as="geometry" />
        </mxCell>
        <mxCell id="hQuamOxjZvcl3ys562Xx-24" value="- id: integer&lt;br&gt;- adventureId: integer&lt;br&gt;- advanceValue: float&lt;br&gt;- user: &lt;b&gt;User&lt;/b&gt;&lt;br&gt;- goodAnswerValue: text (json =&amp;gt; &#39;enygmaLoopId&#39;, &#39;bolean&#39;)&amp;nbsp;&lt;br&gt;- loopReached: text (json =&amp;gt; &#39;enygmaLoopId&#39;, &#39;bolean&#39;)&lt;br&gt;- loopValidated: text (json =&amp;gt; &#39;enygmaLoopId&#39;, &#39;bolean&#39;)" style="text;strokeColor=none;fillColor=none;align=left;verticalAlign=top;spacingLeft=4;spacingRight=4;overflow=hidden;rotatable=0;points=[[0,0.5],[1,0.5]];portConstraint=eastwest;html=1;" parent="hQuamOxjZvcl3ys562Xx-23" vertex="1">
          <mxGeometry y="26" width="330" height="134" as="geometry" />
        </mxCell>
        <mxCell id="hQuamOxjZvcl3ys562Xx-25" value="" style="line;strokeWidth=1;fillColor=none;align=left;verticalAlign=middle;spacingTop=-1;spacingLeft=3;spacingRight=3;rotatable=0;labelPosition=right;points=[];portConstraint=eastwest;" parent="hQuamOxjZvcl3ys562Xx-23" vertex="1">
          <mxGeometry y="160" width="330" height="8" as="geometry" />
        </mxCell>
        <mxCell id="hQuamOxjZvcl3ys562Xx-26" value="+ method(type): type" style="text;strokeColor=none;fillColor=none;align=left;verticalAlign=top;spacingLeft=4;spacingRight=4;overflow=hidden;rotatable=0;points=[[0,0.5],[1,0.5]];portConstraint=eastwest;" parent="hQuamOxjZvcl3ys562Xx-23" vertex="1">
          <mxGeometry y="168" width="330" height="26" as="geometry" />
        </mxCell>
        <mxCell id="hQuamOxjZvcl3ys562Xx-27" value="" style="endArrow=open;html=1;endSize=12;startArrow=open;startSize=14;startFill=0;edgeStyle=orthogonalEdgeStyle;exitX=1;exitY=0.5;exitDx=0;exitDy=0;entryX=0;entryY=0.5;entryDx=0;entryDy=0;" parent="1" source="hQuamOxjZvcl3ys562Xx-20" target="hQuamOxjZvcl3ys562Xx-24" edge="1">
          <mxGeometry relative="1" as="geometry">
            <mxPoint x="3495" y="205.5" as="sourcePoint" />
            <mxPoint x="3655" y="205.5" as="targetPoint" />
          </mxGeometry>
        </mxCell>
        <mxCell id="hQuamOxjZvcl3ys562Xx-28" value="1" style="edgeLabel;resizable=0;html=1;align=left;verticalAlign=top;" parent="hQuamOxjZvcl3ys562Xx-27" connectable="0" vertex="1">
          <mxGeometry x="-1" relative="1" as="geometry">
            <mxPoint x="10" as="offset" />
          </mxGeometry>
        </mxCell>
        <mxCell id="hQuamOxjZvcl3ys562Xx-29" value="&lt;font style=&quot;font-size: 13px&quot;&gt;*&lt;/font&gt;" style="edgeLabel;resizable=0;html=1;align=right;verticalAlign=top;" parent="hQuamOxjZvcl3ys562Xx-27" connectable="0" vertex="1">
          <mxGeometry x="1" relative="1" as="geometry">
            <mxPoint x="-10.2" y="2" as="offset" />
          </mxGeometry>
        </mxCell>
        <mxCell id="hQuamOxjZvcl3ys562Xx-156" style="edgeStyle=orthogonalEdgeStyle;rounded=0;orthogonalLoop=1;jettySize=auto;html=1;entryX=0.518;entryY=0.001;entryDx=0;entryDy=0;entryPerimeter=0;labelBorderColor=#000000;endSize=12;startSize=12;" parent="1" source="hQuamOxjZvcl3ys562Xx-30" target="hQuamOxjZvcl3ys562Xx-34" edge="1">
          <mxGeometry relative="1" as="geometry" />
        </mxCell>
        <mxCell id="hQuamOxjZvcl3ys562Xx-163" value="1" style="edgeLabel;html=1;align=center;verticalAlign=middle;resizable=0;points=[];" parent="hQuamOxjZvcl3ys562Xx-156" vertex="1" connectable="0">
          <mxGeometry x="-0.8932" relative="1" as="geometry">
            <mxPoint x="-15.04" y="10.4" as="offset" />
          </mxGeometry>
        </mxCell>
        <mxCell id="hQuamOxjZvcl3ys562Xx-164" value="*" style="edgeLabel;html=1;align=center;verticalAlign=middle;resizable=0;points=[];fontSize=16;" parent="hQuamOxjZvcl3ys562Xx-156" vertex="1" connectable="0">
          <mxGeometry x="0.8666" relative="1" as="geometry">
            <mxPoint x="-15.04" y="-3.2" as="offset" />
          </mxGeometry>
        </mxCell>
        <mxCell id="hQuamOxjZvcl3ys562Xx-30" value="Adventure" style="swimlane;fontStyle=1;align=center;verticalAlign=top;childLayout=stackLayout;horizontal=1;startSize=26;horizontalStack=0;resizeParent=1;resizeParentMax=0;resizeLast=0;collapsible=1;marginBottom=0;" parent="1" vertex="1">
          <mxGeometry x="3510" y="-1031" width="270" height="326" as="geometry" />
        </mxCell>
        <mxCell id="hQuamOxjZvcl3ys562Xx-31" value="- id: integer&lt;br&gt;- adventurePublished: boolean&lt;br&gt;- adventurePublishedDate: Datetime&lt;br&gt;- adventureName: string(255)&lt;br&gt;- adventureAuthor: string(255)&lt;br&gt;- adventureTown: string(255)&lt;br&gt;- adventurePictureFilename: string(255)&lt;br&gt;- adventureDuration: string(255)&lt;br&gt;- adventureDescription: text&lt;br&gt;- adventureLatitude: float&lt;br&gt;- adventureLongitude: float&lt;br&gt;- pictoMarker: string(255)&lt;br&gt;- adventureWebLink: string(255)&lt;br&gt;- Publishers: &lt;b&gt;Publisher&lt;/b&gt;&lt;br&gt;- steps :&amp;nbsp;&lt;b&gt;Step&lt;/b&gt;" style="text;strokeColor=none;fillColor=none;align=left;verticalAlign=top;spacingLeft=4;spacingRight=4;overflow=hidden;rotatable=0;points=[[0,0.5],[1,0.5]];portConstraint=eastwest;html=1;" parent="hQuamOxjZvcl3ys562Xx-30" vertex="1">
          <mxGeometry y="26" width="270" height="266" as="geometry" />
        </mxCell>
        <mxCell id="hQuamOxjZvcl3ys562Xx-32" value="" style="line;strokeWidth=1;fillColor=none;align=left;verticalAlign=middle;spacingTop=-1;spacingLeft=3;spacingRight=3;rotatable=0;labelPosition=right;points=[];portConstraint=eastwest;" parent="hQuamOxjZvcl3ys562Xx-30" vertex="1">
          <mxGeometry y="292" width="270" height="8" as="geometry" />
        </mxCell>
        <mxCell id="hQuamOxjZvcl3ys562Xx-33" value="+ method(type): type" style="text;strokeColor=none;fillColor=none;align=left;verticalAlign=top;spacingLeft=4;spacingRight=4;overflow=hidden;rotatable=0;points=[[0,0.5],[1,0.5]];portConstraint=eastwest;" parent="hQuamOxjZvcl3ys562Xx-30" vertex="1">
          <mxGeometry y="300" width="270" height="26" as="geometry" />
        </mxCell>
        <mxCell id="hQuamOxjZvcl3ys562Xx-34" value="Step" style="swimlane;fontStyle=1;align=center;verticalAlign=top;childLayout=stackLayout;horizontal=1;startSize=26;horizontalStack=0;resizeParent=1;resizeParentMax=0;resizeLast=0;collapsible=1;marginBottom=0;" parent="1" vertex="1">
          <mxGeometry x="3500" y="-610" width="280" height="184" as="geometry" />
        </mxCell>
        <mxCell id="hQuamOxjZvcl3ys562Xx-35" value="- id: integer&lt;br&gt;- stepName: string(255)&lt;br&gt;- stepDescription: text&lt;br&gt;- stepWebLink: string(255)&lt;br&gt;- cityAdventure:&amp;nbsp;&lt;b&gt;Adventure&lt;/b&gt;&lt;br&gt;- prerequis: &lt;b&gt;Prerequis&lt;/b&gt;" style="text;strokeColor=none;fillColor=none;align=left;verticalAlign=top;spacingLeft=4;spacingRight=4;overflow=hidden;rotatable=0;points=[[0,0.5],[1,0.5]];portConstraint=eastwest;html=1;" parent="hQuamOxjZvcl3ys562Xx-34" vertex="1">
          <mxGeometry y="26" width="280" height="124" as="geometry" />
        </mxCell>
        <mxCell id="hQuamOxjZvcl3ys562Xx-36" value="" style="line;strokeWidth=1;fillColor=none;align=left;verticalAlign=middle;spacingTop=-1;spacingLeft=3;spacingRight=3;rotatable=0;labelPosition=right;points=[];portConstraint=eastwest;" parent="hQuamOxjZvcl3ys562Xx-34" vertex="1">
          <mxGeometry y="150" width="280" height="8" as="geometry" />
        </mxCell>
        <mxCell id="hQuamOxjZvcl3ys562Xx-37" value="+ method(type): type" style="text;strokeColor=none;fillColor=none;align=left;verticalAlign=top;spacingLeft=4;spacingRight=4;overflow=hidden;rotatable=0;points=[[0,0.5],[1,0.5]];portConstraint=eastwest;" parent="hQuamOxjZvcl3ys562Xx-34" vertex="1">
          <mxGeometry y="158" width="280" height="26" as="geometry" />
        </mxCell>
        <mxCell id="hQuamOxjZvcl3ys562Xx-41" value="Prerequis" style="swimlane;fontStyle=1;align=center;verticalAlign=top;childLayout=stackLayout;horizontal=1;startSize=26;horizontalStack=0;resizeParent=1;resizeParentMax=0;resizeLast=0;collapsible=1;marginBottom=0;" parent="1" vertex="1">
          <mxGeometry x="3130" y="-880" width="230" height="134" as="geometry" />
        </mxCell>
        <mxCell id="hQuamOxjZvcl3ys562Xx-42" value="- id: integer&lt;br&gt;- step: &lt;b&gt;Step&lt;/b&gt;" style="text;strokeColor=none;fillColor=none;align=left;verticalAlign=top;spacingLeft=4;spacingRight=4;overflow=hidden;rotatable=0;points=[[0,0.5],[1,0.5]];portConstraint=eastwest;html=1;" parent="hQuamOxjZvcl3ys562Xx-41" vertex="1">
          <mxGeometry y="26" width="230" height="74" as="geometry" />
        </mxCell>
        <mxCell id="hQuamOxjZvcl3ys562Xx-43" value="" style="line;strokeWidth=1;fillColor=none;align=left;verticalAlign=middle;spacingTop=-1;spacingLeft=3;spacingRight=3;rotatable=0;labelPosition=right;points=[];portConstraint=eastwest;" parent="hQuamOxjZvcl3ys562Xx-41" vertex="1">
          <mxGeometry y="100" width="230" height="8" as="geometry" />
        </mxCell>
        <mxCell id="hQuamOxjZvcl3ys562Xx-44" value="+ method(type): type" style="text;strokeColor=none;fillColor=none;align=left;verticalAlign=top;spacingLeft=4;spacingRight=4;overflow=hidden;rotatable=0;points=[[0,0.5],[1,0.5]];portConstraint=eastwest;" parent="hQuamOxjZvcl3ys562Xx-41" vertex="1">
          <mxGeometry y="108" width="230" height="26" as="geometry" />
        </mxCell>
        <mxCell id="hQuamOxjZvcl3ys562Xx-165" style="edgeStyle=orthogonalEdgeStyle;rounded=0;orthogonalLoop=1;jettySize=auto;html=1;entryX=0.463;entryY=1.015;entryDx=0;entryDy=0;entryPerimeter=0;startSize=12;endSize=12;strokeColor=#000000;fontSize=16;endArrow=block;endFill=0;" parent="1" source="hQuamOxjZvcl3ys562Xx-45" target="hQuamOxjZvcl3ys562Xx-37" edge="1">
          <mxGeometry relative="1" as="geometry" />
        </mxCell>
        <mxCell id="hQuamOxjZvcl3ys562Xx-45" value="Video       " style="swimlane;fontStyle=1;align=center;verticalAlign=top;childLayout=stackLayout;horizontal=1;startSize=26;horizontalStack=0;resizeParent=1;resizeParentMax=0;resizeLast=0;collapsible=1;marginBottom=0;" parent="1" vertex="1">
          <mxGeometry x="3630" y="-290" width="280" height="184" as="geometry" />
        </mxCell>
        <mxCell id="hQuamOxjZvcl3ys562Xx-46" value="- id: integer&lt;br&gt;- videoFilename: string(255)&lt;br&gt;- autoPlay: boolean&lt;br&gt;- autoSkip: boolean&lt;br&gt;- nextStep:&amp;nbsp;&lt;b&gt;Step&lt;/b&gt;" style="text;strokeColor=none;fillColor=none;align=left;verticalAlign=top;spacingLeft=4;spacingRight=4;overflow=hidden;rotatable=0;points=[[0,0.5],[1,0.5]];portConstraint=eastwest;html=1;" parent="hQuamOxjZvcl3ys562Xx-45" vertex="1">
          <mxGeometry y="26" width="280" height="124" as="geometry" />
        </mxCell>
        <mxCell id="hQuamOxjZvcl3ys562Xx-47" value="" style="line;strokeWidth=1;fillColor=none;align=left;verticalAlign=middle;spacingTop=-1;spacingLeft=3;spacingRight=3;rotatable=0;labelPosition=right;points=[];portConstraint=eastwest;" parent="hQuamOxjZvcl3ys562Xx-45" vertex="1">
          <mxGeometry y="150" width="280" height="8" as="geometry" />
        </mxCell>
        <mxCell id="hQuamOxjZvcl3ys562Xx-48" value="+ method(type): type" style="text;strokeColor=none;fillColor=none;align=left;verticalAlign=top;spacingLeft=4;spacingRight=4;overflow=hidden;rotatable=0;points=[[0,0.5],[1,0.5]];portConstraint=eastwest;" parent="hQuamOxjZvcl3ys562Xx-45" vertex="1">
          <mxGeometry y="158" width="280" height="26" as="geometry" />
        </mxCell>
        <mxCell id="hQuamOxjZvcl3ys562Xx-57" value="GpsConfig&#xa; " style="swimlane;fontStyle=1;align=center;verticalAlign=top;childLayout=stackLayout;horizontal=1;startSize=26;horizontalStack=0;resizeParent=1;resizeParentMax=0;resizeLast=0;collapsible=1;marginBottom=0;" parent="1" vertex="1">
          <mxGeometry x="2810" y="1370" width="280" height="184" as="geometry" />
        </mxCell>
        <mxCell id="hQuamOxjZvcl3ys562Xx-58" value="- id: integer" style="text;strokeColor=none;fillColor=none;align=left;verticalAlign=top;spacingLeft=4;spacingRight=4;overflow=hidden;rotatable=0;points=[[0,0.5],[1,0.5]];portConstraint=eastwest;html=1;" parent="hQuamOxjZvcl3ys562Xx-57" vertex="1">
          <mxGeometry y="26" width="280" height="124" as="geometry" />
        </mxCell>
        <mxCell id="hQuamOxjZvcl3ys562Xx-59" value="" style="line;strokeWidth=1;fillColor=none;align=left;verticalAlign=middle;spacingTop=-1;spacingLeft=3;spacingRight=3;rotatable=0;labelPosition=right;points=[];portConstraint=eastwest;" parent="hQuamOxjZvcl3ys562Xx-57" vertex="1">
          <mxGeometry y="150" width="280" height="8" as="geometry" />
        </mxCell>
        <mxCell id="hQuamOxjZvcl3ys562Xx-60" value="+ method(type): type" style="text;strokeColor=none;fillColor=none;align=left;verticalAlign=top;spacingLeft=4;spacingRight=4;overflow=hidden;rotatable=0;points=[[0,0.5],[1,0.5]];portConstraint=eastwest;" parent="hQuamOxjZvcl3ys562Xx-57" vertex="1">
          <mxGeometry y="158" width="280" height="26" as="geometry" />
        </mxCell>
        <mxCell id="hQuamOxjZvcl3ys562Xx-62" value="GpsPoint" style="swimlane;fontStyle=1;align=center;verticalAlign=top;childLayout=stackLayout;horizontal=1;startSize=26;horizontalStack=0;resizeParent=1;resizeParentMax=0;resizeLast=0;collapsible=1;marginBottom=0;" parent="1" vertex="1">
          <mxGeometry x="2050" y="1370" width="280" height="184" as="geometry" />
        </mxCell>
        <mxCell id="hQuamOxjZvcl3ys562Xx-69" value="" style="endArrow=open;html=1;endSize=12;startArrow=open;startSize=14;startFill=0;edgeStyle=orthogonalEdgeStyle;exitX=1.004;exitY=0.437;exitDx=0;exitDy=0;exitPerimeter=0;" parent="hQuamOxjZvcl3ys562Xx-62" source="hQuamOxjZvcl3ys562Xx-63" edge="1">
          <mxGeometry relative="1" as="geometry">
            <mxPoint x="220" y="80" as="sourcePoint" />
            <mxPoint x="380" y="80" as="targetPoint" />
            <Array as="points" />
          </mxGeometry>
        </mxCell>
        <mxCell id="hQuamOxjZvcl3ys562Xx-70" value="*" style="edgeLabel;resizable=0;html=1;align=left;verticalAlign=top;" parent="hQuamOxjZvcl3ys562Xx-69" connectable="0" vertex="1">
          <mxGeometry x="-1" relative="1" as="geometry">
            <mxPoint x="10" as="offset" />
          </mxGeometry>
        </mxCell>
        <mxCell id="hQuamOxjZvcl3ys562Xx-71" value="&lt;font style=&quot;font-size: 13px&quot;&gt;1&lt;/font&gt;" style="edgeLabel;resizable=0;html=1;align=right;verticalAlign=top;" parent="hQuamOxjZvcl3ys562Xx-69" connectable="0" vertex="1">
          <mxGeometry x="1" relative="1" as="geometry">
            <mxPoint x="-10.2" y="2" as="offset" />
          </mxGeometry>
        </mxCell>
        <mxCell id="hQuamOxjZvcl3ys562Xx-78" value="&lt;font style=&quot;font-size: 13px&quot;&gt;1&lt;/font&gt;" style="edgeLabel;resizable=0;html=1;align=right;verticalAlign=top;" parent="hQuamOxjZvcl3ys562Xx-69" connectable="0" vertex="1">
          <mxGeometry x="1" relative="1" as="geometry">
            <mxPoint x="489.88" y="-110" as="offset" />
          </mxGeometry>
        </mxCell>
        <mxCell id="hQuamOxjZvcl3ys562Xx-63" value="- id: integer" style="text;strokeColor=none;fillColor=none;align=left;verticalAlign=top;spacingLeft=4;spacingRight=4;overflow=hidden;rotatable=0;points=[[0,0.5],[1,0.5]];portConstraint=eastwest;html=1;" parent="hQuamOxjZvcl3ys562Xx-62" vertex="1">
          <mxGeometry y="26" width="280" height="124" as="geometry" />
        </mxCell>
        <mxCell id="hQuamOxjZvcl3ys562Xx-64" value="" style="line;strokeWidth=1;fillColor=none;align=left;verticalAlign=middle;spacingTop=-1;spacingLeft=3;spacingRight=3;rotatable=0;labelPosition=right;points=[];portConstraint=eastwest;" parent="hQuamOxjZvcl3ys562Xx-62" vertex="1">
          <mxGeometry y="150" width="280" height="8" as="geometry" />
        </mxCell>
        <mxCell id="hQuamOxjZvcl3ys562Xx-65" value="+ method(type): type" style="text;strokeColor=none;fillColor=none;align=left;verticalAlign=top;spacingLeft=4;spacingRight=4;overflow=hidden;rotatable=0;points=[[0,0.5],[1,0.5]];portConstraint=eastwest;" parent="hQuamOxjZvcl3ys562Xx-62" vertex="1">
          <mxGeometry y="158" width="280" height="26" as="geometry" />
        </mxCell>
        <mxCell id="hQuamOxjZvcl3ys562Xx-66" value="" style="endArrow=open;html=1;endSize=12;startArrow=open;startSize=14;startFill=0;edgeStyle=orthogonalEdgeStyle;entryX=0;entryY=0.5;entryDx=0;entryDy=0;" parent="1" edge="1">
          <mxGeometry relative="1" as="geometry">
            <mxPoint x="3170" y="1446" as="sourcePoint" />
            <mxPoint x="3340" y="1446" as="targetPoint" />
            <Array as="points">
              <mxPoint x="3200" y="1446" />
              <mxPoint x="3200" y="1446" />
            </Array>
          </mxGeometry>
        </mxCell>
        <mxCell id="hQuamOxjZvcl3ys562Xx-67" value="1" style="edgeLabel;resizable=0;html=1;align=left;verticalAlign=top;" parent="hQuamOxjZvcl3ys562Xx-66" connectable="0" vertex="1">
          <mxGeometry x="-1" relative="1" as="geometry">
            <mxPoint x="10" as="offset" />
          </mxGeometry>
        </mxCell>
        <mxCell id="hQuamOxjZvcl3ys562Xx-68" value="&lt;font style=&quot;font-size: 13px&quot;&gt;*&lt;/font&gt;" style="edgeLabel;resizable=0;html=1;align=right;verticalAlign=top;" parent="hQuamOxjZvcl3ys562Xx-66" connectable="0" vertex="1">
          <mxGeometry x="1" relative="1" as="geometry">
            <mxPoint x="-10.2" y="2" as="offset" />
          </mxGeometry>
        </mxCell>
        <mxCell id="hQuamOxjZvcl3ys562Xx-75" value="" style="endArrow=open;html=1;endSize=12;startArrow=open;startSize=14;startFill=0;edgeStyle=orthogonalEdgeStyle;exitX=0.424;exitY=-0.007;exitDx=0;exitDy=0;exitPerimeter=0;" parent="1" source="hQuamOxjZvcl3ys562Xx-57" edge="1">
          <mxGeometry relative="1" as="geometry">
            <mxPoint x="2770" y="566.1879999999999" as="sourcePoint" />
            <mxPoint x="2929" y="1226" as="targetPoint" />
            <Array as="points" />
          </mxGeometry>
        </mxCell>
        <mxCell id="hQuamOxjZvcl3ys562Xx-77" value="&lt;font style=&quot;font-size: 13px&quot;&gt;1&lt;/font&gt;" style="edgeLabel;resizable=0;html=1;align=right;verticalAlign=top;" parent="hQuamOxjZvcl3ys562Xx-75" connectable="0" vertex="1">
          <mxGeometry x="1" relative="1" as="geometry">
            <mxPoint x="-10.2" y="2" as="offset" />
          </mxGeometry>
        </mxCell>
        <mxCell id="hQuamOxjZvcl3ys562Xx-172" style="edgeStyle=orthogonalEdgeStyle;rounded=0;orthogonalLoop=1;jettySize=auto;html=1;startSize=12;endArrow=block;endFill=0;endSize=12;strokeColor=#000000;fontSize=16;entryX=0.464;entryY=1.023;entryDx=0;entryDy=0;entryPerimeter=0;" parent="1" source="hQuamOxjZvcl3ys562Xx-79" target="hQuamOxjZvcl3ys562Xx-37" edge="1">
          <mxGeometry relative="1" as="geometry">
            <mxPoint x="3650" y="-220" as="targetPoint" />
          </mxGeometry>
        </mxCell>
        <mxCell id="hQuamOxjZvcl3ys562Xx-79" value="Enigma" style="swimlane;fontStyle=1;align=center;verticalAlign=top;childLayout=stackLayout;horizontal=1;startSize=26;horizontalStack=0;resizeParent=1;resizeParentMax=0;resizeLast=0;collapsible=1;marginBottom=0;" parent="1" vertex="1">
          <mxGeometry x="3330" y="-290" width="280" height="184" as="geometry">
            <mxRectangle x="3330" y="-290" width="80" height="26" as="alternateBounds" />
          </mxGeometry>
        </mxCell>
        <mxCell id="hQuamOxjZvcl3ys562Xx-80" value="- id: integer&lt;br&gt;- enigmaQuestionPictureFilename: string(255)&lt;br&gt;- enigmaQuestionText: text&lt;br&gt;- enigmaExpectedAnswer: string(255)&lt;br&gt;- nextStep:&amp;nbsp;&lt;b&gt;Step&lt;/b&gt;" style="text;strokeColor=none;fillColor=none;align=left;verticalAlign=top;spacingLeft=4;spacingRight=4;overflow=hidden;rotatable=0;points=[[0,0.5],[1,0.5]];portConstraint=eastwest;html=1;" parent="hQuamOxjZvcl3ys562Xx-79" vertex="1">
          <mxGeometry y="26" width="280" height="124" as="geometry" />
        </mxCell>
        <mxCell id="hQuamOxjZvcl3ys562Xx-81" value="" style="line;strokeWidth=1;fillColor=none;align=left;verticalAlign=middle;spacingTop=-1;spacingLeft=3;spacingRight=3;rotatable=0;labelPosition=right;points=[];portConstraint=eastwest;" parent="hQuamOxjZvcl3ys562Xx-79" vertex="1">
          <mxGeometry y="150" width="280" height="8" as="geometry" />
        </mxCell>
        <mxCell id="hQuamOxjZvcl3ys562Xx-82" value="+ method(type): type" style="text;strokeColor=none;fillColor=none;align=left;verticalAlign=top;spacingLeft=4;spacingRight=4;overflow=hidden;rotatable=0;points=[[0,0.5],[1,0.5]];portConstraint=eastwest;" parent="hQuamOxjZvcl3ys562Xx-79" vertex="1">
          <mxGeometry y="158" width="280" height="26" as="geometry" />
        </mxCell>
        <mxCell id="hQuamOxjZvcl3ys562Xx-176" style="edgeStyle=orthogonalEdgeStyle;rounded=0;orthogonalLoop=1;jettySize=auto;html=1;entryX=0.464;entryY=1.023;entryDx=0;entryDy=0;entryPerimeter=0;startSize=12;endArrow=block;endFill=0;endSize=12;strokeColor=#000000;fontSize=16;" parent="1" source="hQuamOxjZvcl3ys562Xx-83" target="hQuamOxjZvcl3ys562Xx-37" edge="1">
          <mxGeometry relative="1" as="geometry" />
        </mxCell>
        <mxCell id="hQuamOxjZvcl3ys562Xx-83" value="Map" style="swimlane;fontStyle=1;align=center;verticalAlign=top;childLayout=stackLayout;horizontal=1;startSize=26;horizontalStack=0;resizeParent=1;resizeParentMax=0;resizeLast=0;collapsible=1;marginBottom=0;" parent="1" vertex="1">
          <mxGeometry x="3930" y="-290" width="280" height="184" as="geometry" />
        </mxCell>
        <mxCell id="hQuamOxjZvcl3ys562Xx-84" value="- id: integer&lt;br&gt;- gpsCoordLatitude: float&lt;br&gt;- gpsCoordLongitude: float&lt;br&gt;- catchPostitionDistance: integer&lt;br&gt;- usePictoMarker: boolean&lt;br&gt;- pictoMarkerFilename: string(255)&lt;br&gt;- useCompass: boolean&lt;br&gt;- nextStep:&amp;nbsp;&lt;b&gt;Step&lt;/b&gt;" style="text;strokeColor=none;fillColor=none;align=left;verticalAlign=top;spacingLeft=4;spacingRight=4;overflow=hidden;rotatable=0;points=[[0,0.5],[1,0.5]];portConstraint=eastwest;html=1;" parent="hQuamOxjZvcl3ys562Xx-83" vertex="1">
          <mxGeometry y="26" width="280" height="124" as="geometry" />
        </mxCell>
        <mxCell id="hQuamOxjZvcl3ys562Xx-85" value="" style="line;strokeWidth=1;fillColor=none;align=left;verticalAlign=middle;spacingTop=-1;spacingLeft=3;spacingRight=3;rotatable=0;labelPosition=right;points=[];portConstraint=eastwest;" parent="hQuamOxjZvcl3ys562Xx-83" vertex="1">
          <mxGeometry y="150" width="280" height="8" as="geometry" />
        </mxCell>
        <mxCell id="hQuamOxjZvcl3ys562Xx-86" value="+ method(type): type" style="text;strokeColor=none;fillColor=none;align=left;verticalAlign=top;spacingLeft=4;spacingRight=4;overflow=hidden;rotatable=0;points=[[0,0.5],[1,0.5]];portConstraint=eastwest;" parent="hQuamOxjZvcl3ys562Xx-83" vertex="1">
          <mxGeometry y="158" width="280" height="26" as="geometry" />
        </mxCell>
        <mxCell id="hQuamOxjZvcl3ys562Xx-87" value="GpsMultiplechoice" style="swimlane;fontStyle=1;align=center;verticalAlign=top;childLayout=stackLayout;horizontal=1;startSize=26;horizontalStack=0;resizeParent=1;resizeParentMax=0;resizeLast=0;collapsible=1;marginBottom=0;" parent="1" vertex="1">
          <mxGeometry x="2430" y="1370" width="280" height="184" as="geometry" />
        </mxCell>
        <mxCell id="hQuamOxjZvcl3ys562Xx-88" value="" style="endArrow=open;html=1;endSize=12;startArrow=open;startSize=14;startFill=0;edgeStyle=orthogonalEdgeStyle;exitX=1.004;exitY=0.437;exitDx=0;exitDy=0;exitPerimeter=0;" parent="hQuamOxjZvcl3ys562Xx-87" source="hQuamOxjZvcl3ys562Xx-92" edge="1">
          <mxGeometry relative="1" as="geometry">
            <mxPoint x="220" y="80" as="sourcePoint" />
            <mxPoint x="380" y="80" as="targetPoint" />
            <Array as="points" />
          </mxGeometry>
        </mxCell>
        <mxCell id="hQuamOxjZvcl3ys562Xx-89" value="*" style="edgeLabel;resizable=0;html=1;align=left;verticalAlign=top;" parent="hQuamOxjZvcl3ys562Xx-88" connectable="0" vertex="1">
          <mxGeometry x="-1" relative="1" as="geometry">
            <mxPoint x="10" as="offset" />
          </mxGeometry>
        </mxCell>
        <mxCell id="hQuamOxjZvcl3ys562Xx-90" value="&lt;font style=&quot;font-size: 13px&quot;&gt;1&lt;/font&gt;" style="edgeLabel;resizable=0;html=1;align=right;verticalAlign=top;" parent="hQuamOxjZvcl3ys562Xx-88" connectable="0" vertex="1">
          <mxGeometry x="1" relative="1" as="geometry">
            <mxPoint x="-10.2" y="2" as="offset" />
          </mxGeometry>
        </mxCell>
        <mxCell id="hQuamOxjZvcl3ys562Xx-92" value="- id: integer" style="text;strokeColor=none;fillColor=none;align=left;verticalAlign=top;spacingLeft=4;spacingRight=4;overflow=hidden;rotatable=0;points=[[0,0.5],[1,0.5]];portConstraint=eastwest;html=1;" parent="hQuamOxjZvcl3ys562Xx-87" vertex="1">
          <mxGeometry y="26" width="280" height="124" as="geometry" />
        </mxCell>
        <mxCell id="hQuamOxjZvcl3ys562Xx-93" value="" style="line;strokeWidth=1;fillColor=none;align=left;verticalAlign=middle;spacingTop=-1;spacingLeft=3;spacingRight=3;rotatable=0;labelPosition=right;points=[];portConstraint=eastwest;" parent="hQuamOxjZvcl3ys562Xx-87" vertex="1">
          <mxGeometry y="150" width="280" height="8" as="geometry" />
        </mxCell>
        <mxCell id="hQuamOxjZvcl3ys562Xx-94" value="+ method(type): type" style="text;strokeColor=none;fillColor=none;align=left;verticalAlign=top;spacingLeft=4;spacingRight=4;overflow=hidden;rotatable=0;points=[[0,0.5],[1,0.5]];portConstraint=eastwest;" parent="hQuamOxjZvcl3ys562Xx-87" vertex="1">
          <mxGeometry y="158" width="280" height="26" as="geometry" />
        </mxCell>
        <mxCell id="hQuamOxjZvcl3ys562Xx-103" value="GpsUnordered" style="swimlane;fontStyle=1;align=center;verticalAlign=top;childLayout=stackLayout;horizontal=1;startSize=26;horizontalStack=0;resizeParent=1;resizeParentMax=0;resizeLast=0;collapsible=1;marginBottom=0;" parent="1" vertex="1">
          <mxGeometry x="2440.65" y="1620" width="280" height="184" as="geometry" />
        </mxCell>
        <mxCell id="hQuamOxjZvcl3ys562Xx-108" value="- id: integer" style="text;strokeColor=none;fillColor=none;align=left;verticalAlign=top;spacingLeft=4;spacingRight=4;overflow=hidden;rotatable=0;points=[[0,0.5],[1,0.5]];portConstraint=eastwest;html=1;" parent="hQuamOxjZvcl3ys562Xx-103" vertex="1">
          <mxGeometry y="26" width="280" height="124" as="geometry" />
        </mxCell>
        <mxCell id="hQuamOxjZvcl3ys562Xx-109" value="" style="line;strokeWidth=1;fillColor=none;align=left;verticalAlign=middle;spacingTop=-1;spacingLeft=3;spacingRight=3;rotatable=0;labelPosition=right;points=[];portConstraint=eastwest;" parent="hQuamOxjZvcl3ys562Xx-103" vertex="1">
          <mxGeometry y="150" width="280" height="8" as="geometry" />
        </mxCell>
        <mxCell id="hQuamOxjZvcl3ys562Xx-110" value="+ method(type): type" style="text;strokeColor=none;fillColor=none;align=left;verticalAlign=top;spacingLeft=4;spacingRight=4;overflow=hidden;rotatable=0;points=[[0,0.5],[1,0.5]];portConstraint=eastwest;" parent="hQuamOxjZvcl3ys562Xx-103" vertex="1">
          <mxGeometry y="158" width="280" height="26" as="geometry" />
        </mxCell>
        <mxCell id="hQuamOxjZvcl3ys562Xx-119" value="GpsOrdereded" style="swimlane;fontStyle=1;align=center;verticalAlign=top;childLayout=stackLayout;horizontal=1;startSize=26;horizontalStack=0;resizeParent=1;resizeParentMax=0;resizeLast=0;collapsible=1;marginBottom=0;" parent="1" vertex="1">
          <mxGeometry x="2430" y="1140" width="280" height="184" as="geometry" />
        </mxCell>
        <mxCell id="hQuamOxjZvcl3ys562Xx-124" value="- id: integer" style="text;strokeColor=none;fillColor=none;align=left;verticalAlign=top;spacingLeft=4;spacingRight=4;overflow=hidden;rotatable=0;points=[[0,0.5],[1,0.5]];portConstraint=eastwest;html=1;" parent="hQuamOxjZvcl3ys562Xx-119" vertex="1">
          <mxGeometry y="26" width="280" height="124" as="geometry" />
        </mxCell>
        <mxCell id="hQuamOxjZvcl3ys562Xx-125" value="" style="line;strokeWidth=1;fillColor=none;align=left;verticalAlign=middle;spacingTop=-1;spacingLeft=3;spacingRight=3;rotatable=0;labelPosition=right;points=[];portConstraint=eastwest;" parent="hQuamOxjZvcl3ys562Xx-119" vertex="1">
          <mxGeometry y="150" width="280" height="8" as="geometry" />
        </mxCell>
        <mxCell id="hQuamOxjZvcl3ys562Xx-126" value="+ method(type): type" style="text;strokeColor=none;fillColor=none;align=left;verticalAlign=top;spacingLeft=4;spacingRight=4;overflow=hidden;rotatable=0;points=[[0,0.5],[1,0.5]];portConstraint=eastwest;" parent="hQuamOxjZvcl3ys562Xx-119" vertex="1">
          <mxGeometry y="158" width="280" height="26" as="geometry" />
        </mxCell>
        <mxCell id="hQuamOxjZvcl3ys562Xx-120" value="" style="endArrow=open;html=1;endSize=12;startArrow=open;startSize=14;startFill=0;edgeStyle=orthogonalEdgeStyle;exitX=1.004;exitY=0.437;exitDx=0;exitDy=0;exitPerimeter=0;entryX=-0.001;entryY=0.107;entryDx=0;entryDy=0;entryPerimeter=0;" parent="1" source="hQuamOxjZvcl3ys562Xx-124" target="hQuamOxjZvcl3ys562Xx-58" edge="1">
          <mxGeometry relative="1" as="geometry">
            <mxPoint x="2650" y="1220" as="sourcePoint" />
            <mxPoint x="2810" y="1220" as="targetPoint" />
            <Array as="points" />
          </mxGeometry>
        </mxCell>
        <mxCell id="hQuamOxjZvcl3ys562Xx-121" value="*" style="edgeLabel;resizable=0;html=1;align=left;verticalAlign=top;" parent="hQuamOxjZvcl3ys562Xx-120" connectable="0" vertex="1">
          <mxGeometry x="-1" relative="1" as="geometry">
            <mxPoint x="10" as="offset" />
          </mxGeometry>
        </mxCell>
        <mxCell id="hQuamOxjZvcl3ys562Xx-122" value="&lt;font style=&quot;font-size: 13px&quot;&gt;1&lt;/font&gt;" style="edgeLabel;resizable=0;html=1;align=right;verticalAlign=top;" parent="hQuamOxjZvcl3ys562Xx-120" connectable="0" vertex="1">
          <mxGeometry x="1" relative="1" as="geometry">
            <mxPoint x="-10.2" y="2" as="offset" />
          </mxGeometry>
        </mxCell>
        <mxCell id="hQuamOxjZvcl3ys562Xx-104" value="" style="endArrow=open;html=1;endSize=12;startArrow=open;startSize=14;startFill=0;edgeStyle=orthogonalEdgeStyle;exitX=1.004;exitY=0.437;exitDx=0;exitDy=0;exitPerimeter=0;entryX=0.001;entryY=0.699;entryDx=0;entryDy=0;entryPerimeter=0;" parent="1" source="hQuamOxjZvcl3ys562Xx-108" target="hQuamOxjZvcl3ys562Xx-58" edge="1">
          <mxGeometry relative="1" as="geometry">
            <mxPoint x="2660.65" y="1700" as="sourcePoint" />
            <mxPoint x="2820.65" y="1700" as="targetPoint" />
            <Array as="points" />
          </mxGeometry>
        </mxCell>
        <mxCell id="hQuamOxjZvcl3ys562Xx-105" value="*" style="edgeLabel;resizable=0;html=1;align=left;verticalAlign=top;" parent="hQuamOxjZvcl3ys562Xx-104" connectable="0" vertex="1">
          <mxGeometry x="-1" relative="1" as="geometry">
            <mxPoint x="10" as="offset" />
          </mxGeometry>
        </mxCell>
        <mxCell id="hQuamOxjZvcl3ys562Xx-106" value="&lt;font style=&quot;font-size: 13px&quot;&gt;1&lt;/font&gt;" style="edgeLabel;resizable=0;html=1;align=right;verticalAlign=top;" parent="hQuamOxjZvcl3ys562Xx-104" connectable="0" vertex="1">
          <mxGeometry x="1" relative="1" as="geometry">
            <mxPoint x="-10.2" y="2" as="offset" />
          </mxGeometry>
        </mxCell>
        <mxCell id="hQuamOxjZvcl3ys562Xx-131" value="" style="endArrow=open;html=1;endSize=12;startArrow=open;startSize=14;startFill=0;edgeStyle=orthogonalEdgeStyle;exitX=1.013;exitY=0.148;exitDx=0;exitDy=0;exitPerimeter=0;entryX=-0.002;entryY=0.659;entryDx=0;entryDy=0;entryPerimeter=0;" parent="1" source="hQuamOxjZvcl3ys562Xx-63" target="hQuamOxjZvcl3ys562Xx-124" edge="1">
          <mxGeometry relative="1" as="geometry">
            <mxPoint x="2309.9999999999995" y="1240.188" as="sourcePoint" />
            <mxPoint x="2408.8800000000006" y="1240" as="targetPoint" />
            <Array as="points" />
          </mxGeometry>
        </mxCell>
        <mxCell id="hQuamOxjZvcl3ys562Xx-132" value="*" style="edgeLabel;resizable=0;html=1;align=left;verticalAlign=top;" parent="hQuamOxjZvcl3ys562Xx-131" connectable="0" vertex="1">
          <mxGeometry x="-1" relative="1" as="geometry">
            <mxPoint x="10" as="offset" />
          </mxGeometry>
        </mxCell>
        <mxCell id="hQuamOxjZvcl3ys562Xx-133" value="&lt;font style=&quot;font-size: 13px&quot;&gt;1&lt;/font&gt;" style="edgeLabel;resizable=0;html=1;align=right;verticalAlign=top;" parent="hQuamOxjZvcl3ys562Xx-131" connectable="0" vertex="1">
          <mxGeometry x="1" relative="1" as="geometry">
            <mxPoint x="-10.2" y="2" as="offset" />
          </mxGeometry>
        </mxCell>
        <mxCell id="hQuamOxjZvcl3ys562Xx-135" value="" style="endArrow=open;html=1;endSize=12;startArrow=open;startSize=14;startFill=0;edgeStyle=orthogonalEdgeStyle;entryX=1.01;entryY=0.786;entryDx=0;entryDy=0;entryPerimeter=0;" parent="1" source="hQuamOxjZvcl3ys562Xx-108" target="hQuamOxjZvcl3ys562Xx-63" edge="1">
          <mxGeometry relative="1" as="geometry">
            <mxPoint x="2320" y="1696.682" as="sourcePoint" />
            <mxPoint x="2415.8000000000006" y="1530.0459999999998" as="targetPoint" />
            <Array as="points" />
          </mxGeometry>
        </mxCell>
        <mxCell id="hQuamOxjZvcl3ys562Xx-136" value="*" style="edgeLabel;resizable=0;html=1;align=left;verticalAlign=top;" parent="hQuamOxjZvcl3ys562Xx-135" connectable="0" vertex="1">
          <mxGeometry x="-1" relative="1" as="geometry">
            <mxPoint x="-100.65" y="-208" as="offset" />
          </mxGeometry>
        </mxCell>
        <mxCell id="hQuamOxjZvcl3ys562Xx-137" value="&lt;font style=&quot;font-size: 13px&quot;&gt;1&lt;/font&gt;" style="edgeLabel;resizable=0;html=1;align=right;verticalAlign=top;" parent="hQuamOxjZvcl3ys562Xx-135" connectable="0" vertex="1">
          <mxGeometry x="1" relative="1" as="geometry">
            <mxPoint x="97.35" y="226.54" as="offset" />
          </mxGeometry>
        </mxCell>
        <mxCell id="hQuamOxjZvcl3ys562Xx-139" value="GpsUnused" style="swimlane;fontStyle=1;align=center;verticalAlign=top;childLayout=stackLayout;horizontal=1;startSize=26;horizontalStack=0;resizeParent=1;resizeParentMax=0;resizeLast=0;collapsible=1;marginBottom=0;" parent="1" vertex="1">
          <mxGeometry x="2440.65" y="1840" width="280" height="184" as="geometry" />
        </mxCell>
        <mxCell id="hQuamOxjZvcl3ys562Xx-140" value="- id: integer" style="text;strokeColor=none;fillColor=none;align=left;verticalAlign=top;spacingLeft=4;spacingRight=4;overflow=hidden;rotatable=0;points=[[0,0.5],[1,0.5]];portConstraint=eastwest;html=1;" parent="hQuamOxjZvcl3ys562Xx-139" vertex="1">
          <mxGeometry y="26" width="280" height="124" as="geometry" />
        </mxCell>
        <mxCell id="hQuamOxjZvcl3ys562Xx-141" value="" style="line;strokeWidth=1;fillColor=none;align=left;verticalAlign=middle;spacingTop=-1;spacingLeft=3;spacingRight=3;rotatable=0;labelPosition=right;points=[];portConstraint=eastwest;" parent="hQuamOxjZvcl3ys562Xx-139" vertex="1">
          <mxGeometry y="150" width="280" height="8" as="geometry" />
        </mxCell>
        <mxCell id="hQuamOxjZvcl3ys562Xx-142" value="+ method(type): type" style="text;strokeColor=none;fillColor=none;align=left;verticalAlign=top;spacingLeft=4;spacingRight=4;overflow=hidden;rotatable=0;points=[[0,0.5],[1,0.5]];portConstraint=eastwest;" parent="hQuamOxjZvcl3ys562Xx-139" vertex="1">
          <mxGeometry y="158" width="280" height="26" as="geometry" />
        </mxCell>
        <mxCell id="hQuamOxjZvcl3ys562Xx-143" value="" style="endArrow=open;html=1;endSize=12;startArrow=open;startSize=14;startFill=0;edgeStyle=orthogonalEdgeStyle;entryX=-0.005;entryY=0.147;entryDx=0;entryDy=0;entryPerimeter=0;" parent="1" source="hQuamOxjZvcl3ys562Xx-140" target="hQuamOxjZvcl3ys562Xx-60" edge="1">
          <mxGeometry relative="1" as="geometry">
            <mxPoint x="2721.49" y="1907.518" as="sourcePoint" />
            <mxPoint x="2810.0000000000005" y="1690.0059999999999" as="targetPoint" />
            <Array as="points">
              <mxPoint x="2750" y="1928" />
              <mxPoint x="2750" y="1820" />
              <mxPoint x="2790" y="1820" />
              <mxPoint x="2790" y="1532" />
            </Array>
          </mxGeometry>
        </mxCell>
        <mxCell id="hQuamOxjZvcl3ys562Xx-144" value="*" style="edgeLabel;resizable=0;html=1;align=left;verticalAlign=top;" parent="hQuamOxjZvcl3ys562Xx-143" connectable="0" vertex="1">
          <mxGeometry x="-1" relative="1" as="geometry">
            <mxPoint x="10" as="offset" />
          </mxGeometry>
        </mxCell>
        <mxCell id="hQuamOxjZvcl3ys562Xx-145" value="&lt;font style=&quot;font-size: 13px&quot;&gt;1&lt;/font&gt;" style="edgeLabel;resizable=0;html=1;align=right;verticalAlign=top;" parent="hQuamOxjZvcl3ys562Xx-143" connectable="0" vertex="1">
          <mxGeometry x="1" relative="1" as="geometry">
            <mxPoint x="-10.2" y="2" as="offset" />
          </mxGeometry>
        </mxCell>
        <mxCell id="hQuamOxjZvcl3ys562Xx-153" value="" style="endArrow=open;html=1;endSize=12;startArrow=open;startSize=14;startFill=0;edgeStyle=orthogonalEdgeStyle;entryX=1;entryY=0.104;entryDx=0;entryDy=0;entryPerimeter=0;" parent="1" target="hQuamOxjZvcl3ys562Xx-65" edge="1">
          <mxGeometry relative="1" as="geometry">
            <mxPoint x="2440.6499999999996" y="1924.54" as="sourcePoint" />
            <mxPoint x="2333" y="1710" as="targetPoint" />
            <Array as="points">
              <mxPoint x="2370" y="1924" />
              <mxPoint x="2370" y="1530" />
              <mxPoint x="2333" y="1530" />
            </Array>
          </mxGeometry>
        </mxCell>
        <mxCell id="hQuamOxjZvcl3ys562Xx-154" value="*" style="edgeLabel;resizable=0;html=1;align=left;verticalAlign=top;" parent="hQuamOxjZvcl3ys562Xx-153" connectable="0" vertex="1">
          <mxGeometry x="-1" relative="1" as="geometry">
            <mxPoint x="-100.65" y="-384.53999999999996" as="offset" />
          </mxGeometry>
        </mxCell>
        <mxCell id="hQuamOxjZvcl3ys562Xx-155" value="&lt;font style=&quot;font-size: 13px&quot;&gt;1&lt;/font&gt;" style="edgeLabel;resizable=0;html=1;align=right;verticalAlign=top;" parent="hQuamOxjZvcl3ys562Xx-153" connectable="0" vertex="1">
          <mxGeometry x="1" relative="1" as="geometry">
            <mxPoint x="97.35" y="409.40999999999997" as="offset" />
          </mxGeometry>
        </mxCell>
        <mxCell id="hQuamOxjZvcl3ys562Xx-182" style="edgeStyle=orthogonalEdgeStyle;rounded=0;orthogonalLoop=1;jettySize=auto;html=1;entryX=0.463;entryY=0.984;entryDx=0;entryDy=0;entryPerimeter=0;startSize=12;endArrow=block;endFill=0;endSize=12;strokeColor=#000000;fontSize=16;" parent="1" source="hQuamOxjZvcl3ys562Xx-177" target="hQuamOxjZvcl3ys562Xx-37" edge="1">
          <mxGeometry relative="1" as="geometry" />
        </mxCell>
        <mxCell id="hQuamOxjZvcl3ys562Xx-177" value="QRcode" style="swimlane;fontStyle=1;align=center;verticalAlign=top;childLayout=stackLayout;horizontal=1;startSize=26;horizontalStack=0;resizeParent=1;resizeParentMax=0;resizeLast=0;collapsible=1;marginBottom=0;" parent="1" vertex="1">
          <mxGeometry x="4230" y="-290" width="280" height="184" as="geometry" />
        </mxCell>
        <mxCell id="hQuamOxjZvcl3ys562Xx-178" value="- id: integer&lt;br&gt;- nextStep:&amp;nbsp;&lt;b&gt;Step&lt;/b&gt;" style="text;strokeColor=none;fillColor=none;align=left;verticalAlign=top;spacingLeft=4;spacingRight=4;overflow=hidden;rotatable=0;points=[[0,0.5],[1,0.5]];portConstraint=eastwest;html=1;" parent="hQuamOxjZvcl3ys562Xx-177" vertex="1">
          <mxGeometry y="26" width="280" height="124" as="geometry" />
        </mxCell>
        <mxCell id="hQuamOxjZvcl3ys562Xx-179" value="" style="line;strokeWidth=1;fillColor=none;align=left;verticalAlign=middle;spacingTop=-1;spacingLeft=3;spacingRight=3;rotatable=0;labelPosition=right;points=[];portConstraint=eastwest;" parent="hQuamOxjZvcl3ys562Xx-177" vertex="1">
          <mxGeometry y="150" width="280" height="8" as="geometry" />
        </mxCell>
        <mxCell id="hQuamOxjZvcl3ys562Xx-180" value="+ method(type): type" style="text;strokeColor=none;fillColor=none;align=left;verticalAlign=top;spacingLeft=4;spacingRight=4;overflow=hidden;rotatable=0;points=[[0,0.5],[1,0.5]];portConstraint=eastwest;" parent="hQuamOxjZvcl3ys562Xx-177" vertex="1">
          <mxGeometry y="158" width="280" height="26" as="geometry" />
        </mxCell>
        <mxCell id="hQuamOxjZvcl3ys562Xx-183" value="StepTrack" style="swimlane;fontStyle=1;align=center;verticalAlign=top;childLayout=stackLayout;horizontal=1;startSize=26;horizontalStack=0;resizeParent=1;resizeParentMax=0;resizeLast=0;collapsible=1;marginBottom=0;" parent="1" vertex="1">
          <mxGeometry x="3952" y="-610" width="280" height="184" as="geometry" />
        </mxCell>
        <mxCell id="hQuamOxjZvcl3ys562Xx-185" value="- id: integer" style="text;strokeColor=none;fillColor=none;align=left;verticalAlign=top;spacingLeft=4;spacingRight=4;overflow=hidden;rotatable=0;points=[[0,0.5],[1,0.5]];portConstraint=eastwest;html=1;" parent="hQuamOxjZvcl3ys562Xx-183" vertex="1">
          <mxGeometry y="26" width="280" height="124" as="geometry" />
        </mxCell>
        <mxCell id="hQuamOxjZvcl3ys562Xx-186" value="" style="line;strokeWidth=1;fillColor=none;align=left;verticalAlign=middle;spacingTop=-1;spacingLeft=3;spacingRight=3;rotatable=0;labelPosition=right;points=[];portConstraint=eastwest;" parent="hQuamOxjZvcl3ys562Xx-183" vertex="1">
          <mxGeometry y="150" width="280" height="8" as="geometry" />
        </mxCell>
        <mxCell id="hQuamOxjZvcl3ys562Xx-187" value="+ method(type): type" style="text;strokeColor=none;fillColor=none;align=left;verticalAlign=top;spacingLeft=4;spacingRight=4;overflow=hidden;rotatable=0;points=[[0,0.5],[1,0.5]];portConstraint=eastwest;" parent="hQuamOxjZvcl3ys562Xx-183" vertex="1">
          <mxGeometry y="158" width="280" height="26" as="geometry" />
        </mxCell>
        <mxCell id="hQuamOxjZvcl3ys562Xx-188" style="edgeStyle=orthogonalEdgeStyle;rounded=0;orthogonalLoop=1;jettySize=auto;html=1;entryX=1;entryY=0.5;entryDx=0;entryDy=0;startSize=12;endArrow=classic;endFill=1;endSize=12;strokeColor=#000000;fontSize=16;" parent="1" source="hQuamOxjZvcl3ys562Xx-185" target="hQuamOxjZvcl3ys562Xx-35" edge="1">
          <mxGeometry relative="1" as="geometry" />
        </mxCell>
        <mxCell id="hQuamOxjZvcl3ys562Xx-226" value="1" style="edgeLabel;html=1;align=center;verticalAlign=middle;resizable=0;points=[];fontSize=13;" parent="hQuamOxjZvcl3ys562Xx-188" vertex="1" connectable="0">
          <mxGeometry x="-0.8505" y="1" relative="1" as="geometry">
            <mxPoint y="11" as="offset" />
          </mxGeometry>
        </mxCell>
        <mxCell id="hQuamOxjZvcl3ys562Xx-227" value="&lt;font style=&quot;font-size: 16px&quot;&gt;*&lt;/font&gt;" style="edgeLabel;html=1;align=center;verticalAlign=middle;resizable=0;points=[];fontSize=13;" parent="hQuamOxjZvcl3ys562Xx-188" vertex="1" connectable="0">
          <mxGeometry x="0.8704" y="1" relative="1" as="geometry">
            <mxPoint y="21" as="offset" />
          </mxGeometry>
        </mxCell>
        <mxCell id="hQuamOxjZvcl3ys562Xx-194" style="edgeStyle=orthogonalEdgeStyle;rounded=0;orthogonalLoop=1;jettySize=auto;html=1;entryX=0.464;entryY=1.023;entryDx=0;entryDy=0;entryPerimeter=0;startSize=12;endArrow=block;endFill=0;endSize=12;strokeColor=#000000;fontSize=16;" parent="1" source="hQuamOxjZvcl3ys562Xx-189" target="hQuamOxjZvcl3ys562Xx-37" edge="1">
          <mxGeometry relative="1" as="geometry" />
        </mxCell>
        <mxCell id="hQuamOxjZvcl3ys562Xx-199" style="edgeStyle=orthogonalEdgeStyle;rounded=0;orthogonalLoop=1;jettySize=auto;html=1;entryX=0.118;entryY=0.962;entryDx=0;entryDy=0;entryPerimeter=0;startSize=12;endArrow=classic;endFill=1;endSize=12;strokeColor=#000000;fontSize=16;" parent="1" source="hQuamOxjZvcl3ys562Xx-190" target="hQuamOxjZvcl3ys562Xx-198" edge="1">
          <mxGeometry relative="1" as="geometry" />
        </mxCell>
        <mxCell id="hQuamOxjZvcl3ys562Xx-228" value="1" style="edgeLabel;html=1;align=center;verticalAlign=middle;resizable=0;points=[];fontSize=13;" parent="hQuamOxjZvcl3ys562Xx-199" vertex="1" connectable="0">
          <mxGeometry x="-0.9322" y="-1" relative="1" as="geometry">
            <mxPoint x="-8.28" y="-17.03" as="offset" />
          </mxGeometry>
        </mxCell>
        <mxCell id="hQuamOxjZvcl3ys562Xx-229" value="&lt;font style=&quot;font-size: 16px&quot;&gt;*&lt;/font&gt;" style="edgeLabel;html=1;align=center;verticalAlign=middle;resizable=0;points=[];fontSize=13;" parent="hQuamOxjZvcl3ys562Xx-199" vertex="1" connectable="0">
          <mxGeometry x="0.9182" y="1" relative="1" as="geometry">
            <mxPoint x="17.96" y="3.28" as="offset" />
          </mxGeometry>
        </mxCell>
        <mxCell id="hQuamOxjZvcl3ys562Xx-189" value="ChoiceStep" style="swimlane;fontStyle=1;align=center;verticalAlign=top;childLayout=stackLayout;horizontal=1;startSize=26;horizontalStack=0;resizeParent=1;resizeParentMax=0;resizeLast=0;collapsible=1;marginBottom=0;" parent="1" vertex="1">
          <mxGeometry x="3030" y="-290" width="280" height="184" as="geometry" />
        </mxCell>
        <mxCell id="hQuamOxjZvcl3ys562Xx-190" value="- id: integer&lt;br&gt;- choice QuestionPictureFilename: string(255)&lt;br&gt;- choiceQuestionText: text" style="text;strokeColor=none;fillColor=none;align=left;verticalAlign=top;spacingLeft=4;spacingRight=4;overflow=hidden;rotatable=0;points=[[0,0.5],[1,0.5]];portConstraint=eastwest;html=1;" parent="hQuamOxjZvcl3ys562Xx-189" vertex="1">
          <mxGeometry y="26" width="280" height="124" as="geometry" />
        </mxCell>
        <mxCell id="hQuamOxjZvcl3ys562Xx-191" value="" style="line;strokeWidth=1;fillColor=none;align=left;verticalAlign=middle;spacingTop=-1;spacingLeft=3;spacingRight=3;rotatable=0;labelPosition=right;points=[];portConstraint=eastwest;" parent="hQuamOxjZvcl3ys562Xx-189" vertex="1">
          <mxGeometry y="150" width="280" height="8" as="geometry" />
        </mxCell>
        <mxCell id="hQuamOxjZvcl3ys562Xx-192" value="+ method(type): type" style="text;strokeColor=none;fillColor=none;align=left;verticalAlign=top;spacingLeft=4;spacingRight=4;overflow=hidden;rotatable=0;points=[[0,0.5],[1,0.5]];portConstraint=eastwest;" parent="hQuamOxjZvcl3ys562Xx-189" vertex="1">
          <mxGeometry y="158" width="280" height="26" as="geometry" />
        </mxCell>
        <mxCell id="hQuamOxjZvcl3ys562Xx-195" value="Choice" style="swimlane;fontStyle=1;align=center;verticalAlign=top;childLayout=stackLayout;horizontal=1;startSize=26;horizontalStack=0;resizeParent=1;resizeParentMax=0;resizeLast=0;collapsible=1;marginBottom=0;" parent="1" vertex="1">
          <mxGeometry x="2910" y="-610" width="280" height="154" as="geometry" />
        </mxCell>
        <mxCell id="hQuamOxjZvcl3ys562Xx-196" value="- id: integer&lt;br&gt;- proposalSentence: string(255)&lt;br&gt;- choiceStep: &lt;b&gt;ChoiceStep&lt;/b&gt;&lt;br&gt;- nextStep: &lt;b&gt;Step&lt;/b&gt;" style="text;strokeColor=none;fillColor=none;align=left;verticalAlign=top;spacingLeft=4;spacingRight=4;overflow=hidden;rotatable=0;points=[[0,0.5],[1,0.5]];portConstraint=eastwest;html=1;" parent="hQuamOxjZvcl3ys562Xx-195" vertex="1">
          <mxGeometry y="26" width="280" height="94" as="geometry" />
        </mxCell>
        <mxCell id="hQuamOxjZvcl3ys562Xx-197" value="" style="line;strokeWidth=1;fillColor=none;align=left;verticalAlign=middle;spacingTop=-1;spacingLeft=3;spacingRight=3;rotatable=0;labelPosition=right;points=[];portConstraint=eastwest;" parent="hQuamOxjZvcl3ys562Xx-195" vertex="1">
          <mxGeometry y="120" width="280" height="8" as="geometry" />
        </mxCell>
        <mxCell id="hQuamOxjZvcl3ys562Xx-198" value="+ method(type): type" style="text;strokeColor=none;fillColor=none;align=left;verticalAlign=top;spacingLeft=4;spacingRight=4;overflow=hidden;rotatable=0;points=[[0,0.5],[1,0.5]];portConstraint=eastwest;" parent="hQuamOxjZvcl3ys562Xx-195" vertex="1">
          <mxGeometry y="128" width="280" height="26" as="geometry" />
        </mxCell>
        <mxCell id="hQuamOxjZvcl3ys562Xx-200" style="edgeStyle=orthogonalEdgeStyle;rounded=0;orthogonalLoop=1;jettySize=auto;html=1;entryX=0.004;entryY=0.387;entryDx=0;entryDy=0;entryPerimeter=0;startSize=12;endArrow=classic;endFill=1;endSize=12;strokeColor=#000000;fontSize=16;" parent="1" source="hQuamOxjZvcl3ys562Xx-196" target="hQuamOxjZvcl3ys562Xx-35" edge="1">
          <mxGeometry relative="1" as="geometry">
            <Array as="points">
              <mxPoint x="3270" y="-536" />
              <mxPoint x="3270" y="-536" />
            </Array>
          </mxGeometry>
        </mxCell>
        <mxCell id="hQuamOxjZvcl3ys562Xx-224" value="&lt;font style=&quot;font-size: 16px&quot;&gt;*&lt;/font&gt;" style="edgeLabel;html=1;align=center;verticalAlign=middle;resizable=0;points=[];fontSize=13;" parent="hQuamOxjZvcl3ys562Xx-200" vertex="1" connectable="0">
          <mxGeometry x="-0.9149" y="1" relative="1" as="geometry">
            <mxPoint y="18.97" as="offset" />
          </mxGeometry>
        </mxCell>
        <mxCell id="hQuamOxjZvcl3ys562Xx-225" value="1" style="edgeLabel;html=1;align=center;verticalAlign=middle;resizable=0;points=[];fontSize=13;" parent="hQuamOxjZvcl3ys562Xx-200" vertex="1" connectable="0">
          <mxGeometry x="0.8984" y="-3" relative="1" as="geometry">
            <mxPoint x="4.83" y="13.01" as="offset" />
          </mxGeometry>
        </mxCell>
        <mxCell id="hQuamOxjZvcl3ys562Xx-203" style="edgeStyle=orthogonalEdgeStyle;rounded=0;orthogonalLoop=1;jettySize=auto;html=1;entryX=0.696;entryY=0.962;entryDx=0;entryDy=0;entryPerimeter=0;startSize=12;endArrow=classic;endFill=1;endSize=12;strokeColor=#000000;fontSize=16;" parent="1" source="hQuamOxjZvcl3ys562Xx-35" target="hQuamOxjZvcl3ys562Xx-44" edge="1">
          <mxGeometry relative="1" as="geometry">
            <Array as="points">
              <mxPoint x="3290" y="-580" />
            </Array>
          </mxGeometry>
        </mxCell>
        <mxCell id="hQuamOxjZvcl3ys562Xx-204" value="*" style="edgeLabel;html=1;align=center;verticalAlign=middle;resizable=0;points=[];fontSize=16;" parent="hQuamOxjZvcl3ys562Xx-203" vertex="1" connectable="0">
          <mxGeometry x="0.9364" relative="1" as="geometry">
            <mxPoint x="-20.08" as="offset" />
          </mxGeometry>
        </mxCell>
        <mxCell id="hQuamOxjZvcl3ys562Xx-205" value="1" style="edgeLabel;html=1;align=center;verticalAlign=middle;resizable=0;points=[];fontSize=13;" parent="hQuamOxjZvcl3ys562Xx-203" vertex="1" connectable="0">
          <mxGeometry x="-0.9469" y="-1" relative="1" as="geometry">
            <mxPoint y="-19" as="offset" />
          </mxGeometry>
        </mxCell>
        <mxCell id="hQuamOxjZvcl3ys562Xx-219" style="edgeStyle=orthogonalEdgeStyle;rounded=0;orthogonalLoop=1;jettySize=auto;html=1;entryX=1.007;entryY=0.216;entryDx=0;entryDy=0;entryPerimeter=0;startSize=12;endArrow=classic;endFill=1;endSize=12;strokeColor=#000000;fontSize=13;" parent="1" source="hQuamOxjZvcl3ys562Xx-206" target="hQuamOxjZvcl3ys562Xx-31" edge="1">
          <mxGeometry relative="1" as="geometry" />
        </mxCell>
        <mxCell id="hQuamOxjZvcl3ys562Xx-206" value="Theme" style="swimlane;fontStyle=1;align=center;verticalAlign=top;childLayout=stackLayout;horizontal=1;startSize=26;horizontalStack=0;resizeParent=1;resizeParentMax=0;resizeLast=0;collapsible=1;marginBottom=0;" parent="1" vertex="1">
          <mxGeometry x="4560" y="-970" width="230" height="134" as="geometry" />
        </mxCell>
        <mxCell id="hQuamOxjZvcl3ys562Xx-207" value="- id: integer" style="text;strokeColor=none;fillColor=none;align=left;verticalAlign=top;spacingLeft=4;spacingRight=4;overflow=hidden;rotatable=0;points=[[0,0.5],[1,0.5]];portConstraint=eastwest;html=1;" parent="hQuamOxjZvcl3ys562Xx-206" vertex="1">
          <mxGeometry y="26" width="230" height="74" as="geometry" />
        </mxCell>
        <mxCell id="hQuamOxjZvcl3ys562Xx-208" value="" style="line;strokeWidth=1;fillColor=none;align=left;verticalAlign=middle;spacingTop=-1;spacingLeft=3;spacingRight=3;rotatable=0;labelPosition=right;points=[];portConstraint=eastwest;" parent="hQuamOxjZvcl3ys562Xx-206" vertex="1">
          <mxGeometry y="100" width="230" height="8" as="geometry" />
        </mxCell>
        <mxCell id="hQuamOxjZvcl3ys562Xx-209" value="+ method(type): type" style="text;strokeColor=none;fillColor=none;align=left;verticalAlign=top;spacingLeft=4;spacingRight=4;overflow=hidden;rotatable=0;points=[[0,0.5],[1,0.5]];portConstraint=eastwest;" parent="hQuamOxjZvcl3ys562Xx-206" vertex="1">
          <mxGeometry y="108" width="230" height="26" as="geometry" />
        </mxCell>
        <mxCell id="hQuamOxjZvcl3ys562Xx-218" style="edgeStyle=orthogonalEdgeStyle;rounded=0;orthogonalLoop=1;jettySize=auto;html=1;entryX=0.837;entryY=1.013;entryDx=0;entryDy=0;entryPerimeter=0;startSize=12;endArrow=classic;endFill=1;endSize=12;strokeColor=#000000;fontSize=13;" parent="1" source="hQuamOxjZvcl3ys562Xx-210" target="hQuamOxjZvcl3ys562Xx-180" edge="1">
          <mxGeometry relative="1" as="geometry" />
        </mxCell>
        <mxCell id="hQuamOxjZvcl3ys562Xx-220" style="edgeStyle=orthogonalEdgeStyle;rounded=0;orthogonalLoop=1;jettySize=auto;html=1;entryX=0.504;entryY=1;entryDx=0;entryDy=0;entryPerimeter=0;startSize=12;endArrow=classic;endFill=1;endSize=12;strokeColor=#000000;fontSize=13;" parent="1" source="hQuamOxjZvcl3ys562Xx-210" target="hQuamOxjZvcl3ys562Xx-209" edge="1">
          <mxGeometry relative="1" as="geometry" />
        </mxCell>
        <mxCell id="hQuamOxjZvcl3ys562Xx-210" value="ThemeQRcode" style="swimlane;fontStyle=1;align=center;verticalAlign=top;childLayout=stackLayout;horizontal=1;startSize=26;horizontalStack=0;resizeParent=1;resizeParentMax=0;resizeLast=0;collapsible=1;marginBottom=0;" parent="1" vertex="1">
          <mxGeometry x="4560" y="-771" width="230" height="134" as="geometry" />
        </mxCell>
        <mxCell id="hQuamOxjZvcl3ys562Xx-211" value="- id: integer" style="text;strokeColor=none;fillColor=none;align=left;verticalAlign=top;spacingLeft=4;spacingRight=4;overflow=hidden;rotatable=0;points=[[0,0.5],[1,0.5]];portConstraint=eastwest;html=1;" parent="hQuamOxjZvcl3ys562Xx-210" vertex="1">
          <mxGeometry y="26" width="230" height="74" as="geometry" />
        </mxCell>
        <mxCell id="hQuamOxjZvcl3ys562Xx-212" value="" style="line;strokeWidth=1;fillColor=none;align=left;verticalAlign=middle;spacingTop=-1;spacingLeft=3;spacingRight=3;rotatable=0;labelPosition=right;points=[];portConstraint=eastwest;" parent="hQuamOxjZvcl3ys562Xx-210" vertex="1">
          <mxGeometry y="100" width="230" height="8" as="geometry" />
        </mxCell>
        <mxCell id="hQuamOxjZvcl3ys562Xx-213" value="+ method(type): type" style="text;strokeColor=none;fillColor=none;align=left;verticalAlign=top;spacingLeft=4;spacingRight=4;overflow=hidden;rotatable=0;points=[[0,0.5],[1,0.5]];portConstraint=eastwest;" parent="hQuamOxjZvcl3ys562Xx-210" vertex="1">
          <mxGeometry y="108" width="230" height="26" as="geometry" />
        </mxCell>
        <mxCell id="hQuamOxjZvcl3ys562Xx-221" style="edgeStyle=orthogonalEdgeStyle;rounded=0;orthogonalLoop=1;jettySize=auto;html=1;entryX=0.5;entryY=1.015;entryDx=0;entryDy=0;entryPerimeter=0;startSize=12;endArrow=classic;endFill=1;endSize=12;strokeColor=#000000;fontSize=13;" parent="1" source="hQuamOxjZvcl3ys562Xx-214" target="hQuamOxjZvcl3ys562Xx-209" edge="1">
          <mxGeometry relative="1" as="geometry" />
        </mxCell>
        <mxCell id="hQuamOxjZvcl3ys562Xx-214" value="ThemeMap" style="swimlane;fontStyle=1;align=center;verticalAlign=top;childLayout=stackLayout;horizontal=1;startSize=26;horizontalStack=0;resizeParent=1;resizeParentMax=0;resizeLast=0;collapsible=1;marginBottom=0;" parent="1" vertex="1">
          <mxGeometry x="4810" y="-771" width="230" height="134" as="geometry" />
        </mxCell>
        <mxCell id="hQuamOxjZvcl3ys562Xx-215" value="- id: integer" style="text;strokeColor=none;fillColor=none;align=left;verticalAlign=top;spacingLeft=4;spacingRight=4;overflow=hidden;rotatable=0;points=[[0,0.5],[1,0.5]];portConstraint=eastwest;html=1;" parent="hQuamOxjZvcl3ys562Xx-214" vertex="1">
          <mxGeometry y="26" width="230" height="74" as="geometry" />
        </mxCell>
        <mxCell id="hQuamOxjZvcl3ys562Xx-216" value="" style="line;strokeWidth=1;fillColor=none;align=left;verticalAlign=middle;spacingTop=-1;spacingLeft=3;spacingRight=3;rotatable=0;labelPosition=right;points=[];portConstraint=eastwest;" parent="hQuamOxjZvcl3ys562Xx-214" vertex="1">
          <mxGeometry y="100" width="230" height="8" as="geometry" />
        </mxCell>
        <mxCell id="hQuamOxjZvcl3ys562Xx-217" value="+ method(type): type" style="text;strokeColor=none;fillColor=none;align=left;verticalAlign=top;spacingLeft=4;spacingRight=4;overflow=hidden;rotatable=0;points=[[0,0.5],[1,0.5]];portConstraint=eastwest;" parent="hQuamOxjZvcl3ys562Xx-214" vertex="1">
          <mxGeometry y="108" width="230" height="26" as="geometry" />
        </mxCell>
        <mxCell id="hQuamOxjZvcl3ys562Xx-230" value="Publisher" style="swimlane;fontStyle=1;align=center;verticalAlign=top;childLayout=stackLayout;horizontal=1;startSize=26;horizontalStack=0;resizeParent=1;resizeParentMax=0;resizeLast=0;collapsible=1;marginBottom=0;" parent="1" vertex="1">
          <mxGeometry x="3140" y="-1270" width="230" height="134" as="geometry" />
        </mxCell>
        <mxCell id="hQuamOxjZvcl3ys562Xx-231" value="- id: integer&lt;br&gt;- adventures: &lt;b&gt;Adventure&lt;/b&gt;" style="text;strokeColor=none;fillColor=none;align=left;verticalAlign=top;spacingLeft=4;spacingRight=4;overflow=hidden;rotatable=0;points=[[0,0.5],[1,0.5]];portConstraint=eastwest;html=1;" parent="hQuamOxjZvcl3ys562Xx-230" vertex="1">
          <mxGeometry y="26" width="230" height="74" as="geometry" />
        </mxCell>
        <mxCell id="hQuamOxjZvcl3ys562Xx-232" value="" style="line;strokeWidth=1;fillColor=none;align=left;verticalAlign=middle;spacingTop=-1;spacingLeft=3;spacingRight=3;rotatable=0;labelPosition=right;points=[];portConstraint=eastwest;" parent="hQuamOxjZvcl3ys562Xx-230" vertex="1">
          <mxGeometry y="100" width="230" height="8" as="geometry" />
        </mxCell>
        <mxCell id="hQuamOxjZvcl3ys562Xx-233" value="+ method(type): type" style="text;strokeColor=none;fillColor=none;align=left;verticalAlign=top;spacingLeft=4;spacingRight=4;overflow=hidden;rotatable=0;points=[[0,0.5],[1,0.5]];portConstraint=eastwest;" parent="hQuamOxjZvcl3ys562Xx-230" vertex="1">
          <mxGeometry y="108" width="230" height="26" as="geometry" />
        </mxCell>
        <mxCell id="hQuamOxjZvcl3ys562Xx-234" style="edgeStyle=orthogonalEdgeStyle;rounded=0;orthogonalLoop=1;jettySize=auto;html=1;entryX=0.48;entryY=0.004;entryDx=0;entryDy=0;entryPerimeter=0;startSize=12;endArrow=classic;endFill=1;endSize=12;strokeColor=#000000;fontSize=13;" parent="1" source="hQuamOxjZvcl3ys562Xx-231" target="hQuamOxjZvcl3ys562Xx-30" edge="1">
          <mxGeometry relative="1" as="geometry" />
        </mxCell>
        <mxCell id="hQuamOxjZvcl3ys562Xx-235" value="&lt;font style=&quot;font-size: 16px&quot;&gt;*&lt;/font&gt;" style="edgeLabel;html=1;align=center;verticalAlign=middle;resizable=0;points=[];fontSize=13;" parent="hQuamOxjZvcl3ys562Xx-234" vertex="1" connectable="0">
          <mxGeometry x="-0.9498" y="-1" relative="1" as="geometry">
            <mxPoint y="15.97" as="offset" />
          </mxGeometry>
        </mxCell>
        <mxCell id="hQuamOxjZvcl3ys562Xx-236" value="&lt;font style=&quot;font-size: 16px&quot;&gt;*&lt;/font&gt;" style="edgeLabel;html=1;align=center;verticalAlign=middle;resizable=0;points=[];fontSize=13;" parent="hQuamOxjZvcl3ys562Xx-234" vertex="1" connectable="0">
          <mxGeometry x="0.933" relative="1" as="geometry">
            <mxPoint x="-19.6" as="offset" />
          </mxGeometry>
        </mxCell>
      </root>
    </mxGraphModel>
  </diagram>
</mxfile>
